<svg fill="none" height="1080" viewBox="0 0 1080 1080" width="1080" xmlns="http://www.w3.org/2000/svg"><path d="m0 0h1080v1080h-1080z" fill="#fff"/><path d="m278.552 367.152h51.84l64.512 192.96 15.84 2.88v19.008h-90.72v-19.008l20.448-2.88-9.792-34.56h-68.832l-9.792 34.848 22.464 2.592v19.008h-76.608l-.288-19.008 16.704-3.168zm21.312 50.112-4.32-20.16-4.608 20.448-23.328 85.824h57.024zm142.569 145.728 22.176-2.88v-168.192l-21.024-4.032v-19.872h44.352c3.648 0 7.584-.096 11.808-.288 4.416-.192 7.776-.384 10.08-.576 10.368-.768 19.2-1.152 26.496-1.152 20.544 0 36.864 2.016 48.96 6.048 12.096 3.84 20.832 9.984 26.208 18.432 5.568 8.256 8.352 19.2 8.352 32.832 0 13.056-3.456 25.248-10.368 36.576s-17.088 19.104-30.528 23.328c8.832 3.264 16.224 9.408 22.176 18.432 6.144 8.832 12.48 20.16 19.008 33.984 3.84 8.064 6.912 14.112 9.216 18.144 2.304 3.84 4.704 6.048 7.2 6.624l8.352 2.592v19.008h-54.72c-2.88 0-5.856-3.072-8.928-9.216s-7.008-15.744-11.808-28.8c-5.952-15.936-11.136-28.224-15.552-36.864-4.224-8.832-8.928-14.208-14.112-16.128h-25.92v69.12l25.632 2.88v19.008h-97.056zm93.6-90.72c9.984 0 17.76-3.84 23.328-11.52 5.568-7.872 8.352-19.68 8.352-35.424 0-13.824-2.784-23.904-8.352-30.24-5.376-6.528-14.496-9.792-27.36-9.792-6.912 0-12.96.48-18.144 1.44v84.672c2.496.576 6.624.864 12.384.864zm212.96-82.944-36 1.44-12.096 64.224h-27.072l4.608-86.976h189.792l3.744 86.976h-25.632l-12.672-64.224-34.848-1.44v170.496l40.032 3.168v19.008h-126.432v-19.008l36.576-3.168z" fill="#383737"/><path d="m270.756 707.312c-.096.384-.144.96-.144 1.728 0 2.496.96 3.744 2.88 3.744 1.536 0 3.696-1.152 6.48-3.456l2.016 4.464c-1.248 1.92-3.504 4.032-6.768 6.336-3.168 2.208-6.864 3.312-11.088 3.312-3.264 0-5.856-.72-7.776-2.16s-2.928-3.648-3.024-6.624l.288-2.448c-2.688 3.168-5.952 5.856-9.792 8.064-3.84 2.112-8.064 3.168-12.672 3.168-8.064 0-14.112-2.736-18.144-8.208-3.936-5.568-5.904-12.816-5.904-21.744 0-8.832 1.824-17.328 5.472-25.488 3.744-8.16 9.168-14.832 16.272-20.016s15.552-7.776 25.344-7.776c2.496 0 5.184.288 8.064.864 2.976.576 5.568 1.248 7.776 2.016l9.936-2.88zm-11.088-56.88c-1.824-.864-4.176-1.296-7.056-1.296-5.76 0-10.56 2.208-14.4 6.624-3.84 4.32-6.672 9.84-8.496 16.56-1.728 6.624-2.592 13.344-2.592 20.16 0 6.336.96 11.28 2.88 14.832 1.92 3.456 4.752 5.184 8.496 5.184 2.4 0 4.8-.816 7.2-2.448 2.496-1.632 4.704-3.552 6.624-5.76zm50.964 29.952c-.384 3.552-.72 6.048-1.008 7.488-.96 7.488-1.44 12.288-1.44 14.4 0 3.84.672 6.576 2.016 8.208s3.36 2.448 6.048 2.448c3.072 0 6.096-.96 9.072-2.88 3.072-1.92 5.664-4.224 7.776-6.912l8.352-62.208h19.008l-9.216 66.672c-.192 1.728-.048 3.024.432 3.888s1.2 1.296 2.16 1.296c.864 0 1.776-.24 2.736-.72.96-.576 2.304-1.584 4.032-3.024l2.016 4.464c-1.248 2.016-3.552 4.176-6.912 6.48s-7.2 3.456-11.52 3.456c-3.36 0-5.952-.72-7.776-2.16-1.728-1.44-2.688-3.408-2.88-5.904l-.144-1.728c0-.768.096-1.728.288-2.88l-.288-.144c-7.104 8.544-15.456 12.816-25.056 12.816-5.376 0-9.936-1.44-13.68-4.32-3.744-2.976-5.664-7.68-5.76-14.112 0-3.744.672-10.512 2.016-20.304.384-2.4.624-4.032.72-4.896l3.888-26.208-8.352-4.896 1.152-5.904 23.904-2.448 3.312 1.584zm97.284-45.216c.96-5.76 2.832-10.944 5.616-15.552 2.88-4.608 6.528-8.256 10.944-10.944s9.36-4.032 14.832-4.032c5.088 0 9.12.576 12.096 1.728l-4.032 11.52c-2.784-2.112-6-3.168-9.648-3.168-3.552 0-6.144 1.344-7.776 4.032-1.536 2.688-2.688 6.816-3.456 12.384l-1.44 10.512h15.84l-1.872 10.8h-15.408l-7.92 63.936c-1.536 11.808-5.04 21.696-10.512 29.664-5.376 7.968-12.576 12-21.6 12.096-2.208.096-4.512 0-6.912-.288-2.496-.288-4.464-.624-5.904-1.008l3.744-12.096c1.248.576 3.072 1.2 5.472 1.872 2.304.768 4.176 1.152 5.616 1.152 2.592 0 4.608-1.296 6.048-3.888 1.536-2.496 2.64-6.288 3.312-11.376l9.936-80.064h-9.216l1.296-6.336 9.792-4.176zm87.681 72.432c-2.496 3.936-6.576 7.632-12.24 11.088-5.568 3.456-12.048 5.184-19.44 5.184-6.912 0-12.624-1.488-17.136-4.464-4.416-2.976-7.632-6.864-9.648-11.664s-3.024-10.032-3.024-15.696c0-9.6 1.92-18.336 5.76-26.208 3.936-7.968 9.264-14.256 15.984-18.864s14.208-6.912 22.464-6.912c7.392 0 12.864 1.728 16.416 5.184 3.648 3.36 5.472 7.776 5.472 13.248 0 6.912-2.496 12.672-7.488 17.28s-10.992 8.064-18 10.368c-7.008 2.208-13.632 3.408-19.872 3.6-.192 6.912.912 12.48 3.312 16.704 2.496 4.224 6.24 6.336 11.232 6.336 8.256 0 15.744-3.84 22.464-11.52zm-21.6-58.608c-5.664 0-10.128 3.408-13.392 10.224s-5.184 14.4-5.76 22.752c3.744-.192 7.68-1.2 11.808-3.024 4.224-1.824 7.728-4.368 10.512-7.632 2.88-3.36 4.32-7.2 4.32-11.52 0-3.456-.672-6.096-2.016-7.92-1.248-1.92-3.072-2.88-5.472-2.88zm17.712-53.856 11.664 11.376c-.864 1.536-3.12 4.032-6.768 7.488-3.648 3.36-7.584 6.672-11.808 9.936s-7.68 5.472-10.368 6.624l-5.472-5.328zm39.81 62.64c3.456-5.184 7.584-9.408 12.384-12.672s9.84-4.896 15.12-4.896c5.376 0 9.552 1.44 12.528 4.32 3.072 2.784 4.848 7.296 5.328 13.536 3.36-5.568 7.44-9.936 12.24-13.104 4.896-3.168 10.176-4.752 15.84-4.752 12 0 18 7.056 18 21.168 0 3.072-.96 10.176-2.88 21.312l-.576 3.744-.72 3.744c-1.632 8.928-2.496 15.072-2.592 18.432 0 2.784.816 4.176 2.448 4.176.864 0 1.776-.24 2.736-.72 1.056-.576 2.448-1.584 4.176-3.024l1.872 4.464c-1.344 2.016-3.696 4.176-7.056 6.48s-7.392 3.456-12.096 3.456c-4.512 0-7.632-.912-9.36-2.736s-2.592-4.272-2.592-7.344c0-1.92.288-4.704.864-8.352.576-3.744 1.2-7.488 1.872-11.232l.576-3.312c1.152-6.528 1.968-11.664 2.448-15.408.576-3.744.864-7.392.864-10.944 0-4.416-.528-7.44-1.584-9.072-.96-1.632-2.688-2.448-5.184-2.448-3.072 0-6.432 1.488-10.08 4.464-3.552 2.976-6.624 6.768-9.216 11.376-.384 5.664-1.008 11.664-1.872 18l-4.464 35.568h-19.44l4.176-31.392c1.728-11.904 2.592-20.928 2.592-27.072-.096-4.416-.72-7.344-1.872-8.784-1.056-1.44-2.976-2.16-5.76-2.16-3.072 0-6.576 1.68-10.512 5.04-3.84 3.36-7.056 7.392-9.648 12.096l-7.2 52.272h-18.72l9.216-68.544-7.344-3.888 1.152-5.904 22.464-3.456 3.312 1.584zm123.594 49.824c-.096.48-.144 1.056-.144 1.728 0 2.304.816 3.456 2.448 3.456.864 0 1.824-.288 2.88-.864s2.4-1.536 4.032-2.88l1.872 4.464c-1.632 2.208-4.08 4.416-7.344 6.624-3.168 2.208-7.056 3.312-11.664 3.312-3.744 0-6.672-.72-8.784-2.16-2.112-1.536-3.168-3.6-3.168-6.192l.144-1.44c.576-4.992 2.544-19.488 5.904-43.488l2.304-16.704-8.496-4.032 1.008-5.616 24.768-3.456 3.456 1.584zm1.584-81.072c-2.592 0-4.848-.96-6.768-2.88-1.824-2.016-2.736-4.32-2.736-6.912 0-3.552 1.152-6.528 3.456-8.928 2.4-2.4 5.424-3.6 9.072-3.6 2.976 0 5.328.96 7.056 2.88 1.728 1.824 2.592 4.032 2.592 6.624 0 3.648-1.104 6.72-3.312 9.216-2.208 2.4-5.328 3.6-9.36 3.6zm43.094 31.104c3.552-5.28 7.776-9.504 12.672-12.672s10.032-4.752 15.408-4.752c11.904 0 17.856 7.056 17.856 21.168 0 3.744-1.2 12.096-3.6 25.056-.384 2.496-.72 4.416-1.008 5.76-1.344 7.584-2.064 13.056-2.16 16.416v.576c0 2.4.768 3.6 2.304 3.6.864 0 1.776-.24 2.736-.72s2.208-1.344 3.744-2.592l2.016 4.464c-1.44 2.016-3.792 4.128-7.056 6.336-3.264 2.112-7.248 3.168-11.952 3.168-4.512 0-7.632-.96-9.36-2.88-1.728-2.016-2.592-4.656-2.592-7.92.096-2.88 1.008-8.592 2.736-17.136l.864-4.896c.192-.864.576-3.168 1.152-6.912.672-3.744 1.2-7.296 1.584-10.656.384-3.456.576-6.432.576-8.928 0-4.416-.528-7.44-1.584-9.072-.96-1.632-2.736-2.448-5.328-2.448-3.168 0-6.72 1.776-10.656 5.328-3.84 3.552-7.152 7.824-9.936 12.816l-6.912 51.264h-18.864l9.216-68.544-7.344-3.888 1.152-5.904 22.464-3.456 3.312 1.584zm78.031 49.968c-.096.48-.144 1.056-.144 1.728 0 2.304.816 3.456 2.448 3.456.864 0 1.824-.288 2.88-.864s2.4-1.536 4.032-2.88l1.872 4.464c-1.632 2.208-4.08 4.416-7.344 6.624-3.168 2.208-7.056 3.312-11.664 3.312-3.744 0-6.672-.72-8.784-2.16-2.112-1.536-3.168-3.6-3.168-6.192l.144-1.44c.576-4.992 2.544-19.488 5.904-43.488l2.304-16.704-8.496-4.032 1.008-5.616 24.768-3.456 3.456 1.584zm1.584-81.072c-2.592 0-4.848-.96-6.768-2.88-1.824-2.016-2.736-4.32-2.736-6.912 0-3.552 1.152-6.528 3.456-8.928 2.4-2.4 5.424-3.6 9.072-3.6 2.976 0 5.328.96 7.056 2.88 1.728 1.824 2.592 4.032 2.592 6.624 0 3.648-1.104 6.72-3.312 9.216-2.208 2.4-5.328 3.6-9.36 3.6zm43.094 31.104c3.552-5.28 7.776-9.504 12.672-12.672s10.032-4.752 15.408-4.752c11.904 0 17.856 7.056 17.856 21.168 0 3.744-1.2 12.096-3.6 25.056-.384 2.496-.72 4.416-1.008 5.76-1.344 7.584-2.064 13.056-2.16 16.416v.576c0 2.4.768 3.6 2.304 3.6.864 0 1.776-.24 2.736-.72s2.208-1.344 3.744-2.592l2.016 4.464c-1.44 2.016-3.792 4.128-7.056 6.336-3.264 2.112-7.248 3.168-11.952 3.168-4.512 0-7.632-.96-9.36-2.88-1.728-2.016-2.592-4.656-2.592-7.92.096-2.88 1.008-8.592 2.736-17.136l.864-4.896c.192-.864.576-3.168 1.152-6.912.672-3.744 1.2-7.296 1.584-10.656.384-3.456.576-6.432.576-8.928 0-4.416-.528-7.44-1.584-9.072-.96-1.632-2.736-2.448-5.328-2.448-3.168 0-6.72 1.776-10.656 5.328-3.84 3.552-7.152 7.824-9.936 12.816l-6.912 51.264h-18.864l9.216-68.544-7.344-3.888 1.152-5.904 22.464-3.456 3.312 1.584z" fill="#939fa8"/></svg>