<svg fill="none" height="1080" viewBox="0 0 1080 1080" width="1080" xmlns="http://www.w3.org/2000/svg"><path d="m0 0h1080v1080h-1080z" fill="#fff"/><g fill="#d84759"><path d="m313.645 584.099h-14.069v-144.379c0-2.457-1.981-4.451-4.438-4.451l-74.66 22.429c-3.421.846-4.438 4.042-4.438 6.499v42.838c0 2.457 1.981 4.452 4.438 4.452l13.342-4.002v76.627h-14.068c-2.444 0-4.439 1.995-4.439 4.452v44.872c0 2.457 1.982 4.452 4.439 4.452h93.893c2.443 0 4.438-1.995 4.438-4.452v-44.872c-.013-2.47-1.995-4.465-4.438-4.465z"/><path d="m792.936 638.35c17.357 1.731 35.956-3.566 52.203-9.101 38.294-13.038 74.607-33.724 106.891-57.95 14.081-10.567 27.845-21.927 39.364-35.309 8.533-9.92 16.866-21.623 17.516-35.15.71-14.979-22.522-14.913-23.236 0 0 .145-.013.238-.013.357-.013.079-.039.158-.053.264-.237 1.149-.607 2.272-.99 3.382-.027.092-.066.198-.119.317-.172.356-.33.713-.502 1.07-.727 1.492-1.572 2.945-2.444 4.372-.806 1.334-1.691 2.615-2.576 3.897-.462.673-.951 1.321-1.44 1.968-.079.092-.171.224-.29.37-2.523 3.157-5.244 6.155-8.032 9.075-13.658 14.305-27.488 24.807-43.208 35.599-17.978 12.351-36.96 23.315-56.615 32.773-16.789 8.071-34.503 15.072-53.855 19.127-1.981.409-3.976.766-5.971 1.083-.198.027-.951.132-1.466.211-.713.08-1.413.159-2.127.238-4.002.41-8.031.515-12.047.278-.251-.014-1.4-.146-1.849-.199-.568-.105-1.149-.224-1.717-.343-1.506-.317-2.972-.766-4.425-1.281 1.453.488-2.299-1.136-3.039-1.572-.303-.172-.594-.37-.885-.568.238.132-1.387-1.07-1.783-1.44-.475-.436-2.193-2.444-2.444-2.642-.502-.726-.977-1.453-1.413-2.219 16.234-11.347 31.28-24.57 44.952-38.77 15.811-16.432 30.447-34.912 40.804-55.308 10.092-19.893 17.7-47.329 1.281-66.073-16.948-19.339-45.005-5.456-60.579 7.635-15.587 13.103-26.735 30.923-35.176 49.245-8.137 17.661-14.399 36.325-17.556 55.545-1.994 12.179-3.17 25.389-1.188 37.872-6.949 4.121-14.108 7.872-21.492 11.148-8.349 3.712-19.22 6.935-29.127 8.494.621-.119-2.312.251-2.312.251-1.189.119-2.391.185-3.593.251-2.272.132-4.544.119-6.816.026-.634-.026-1.281-.079-1.915-.132.647.053-1.374-.198-1.77-.264-1.77-.33-3.487-.832-5.178-1.426 1.083.343-2.47-1.203-3.184-1.625-.33-.198-.66-.41-.977-.621-.304-.225-.885-.647-1.11-.859-.991-.858-1.876-1.823-2.721-2.8-.225-.277-.462-.581-.581-.753-.568-.819-1.07-1.678-1.559-2.536 18.123-12.377 34.847-26.855 49.536-43.155 18.083-20.052 34.37-43.433 44.37-68.623 8.137-20.528 5.839-46.788-17.106-55.691-10.264-3.99-21.888-.727-31.465 3.421-13.025 5.64-23.988 16.472-32.878 27.251-11.559 14.015-19.59 30.474-26.3 47.25-7.213 17.991-12.034 36.973-13.738 56.299-.647 7.423-.674 15.336.409 23.05-8.731 5.178-17.78 9.828-27.092 13.87-.568.225-3.025 1.255-3.765 1.545-1.176.463-2.351.912-3.54 1.335-1.044.383-2.1.753-3.157 1.083-2.206.66-4.438 1.255-6.684 1.783-1.044.238-2.114.449-3.17.647-.212.04-1.414.225-1.889.304-3.54.396-7.107.449-10.647.132-.093-.013-.172-.026-.291-.053-.766-.132-1.519-.317-2.285-.488-1.017-.238-2.008-.568-2.985-.912.317.053-2.312-1.109-2.946-1.492-.581-.344-1.136-.714-1.691-1.097-.119-.105-.238-.211-.409-.356-1.044-.899-1.995-1.916-2.906-2.946-.053-.066-.132-.159-.212-.251-.304-.436-.607-.872-.911-1.321-.793-1.202-1.48-2.47-2.14-3.738-.132-.251-.238-.516-.357-.767-.171-.422-.66-1.571-.805-1.955-.08-.224-.146-.449-.225-.66 29.919-18.823 55.295-44.265 73.88-74.752 12.695-20.805 27.78-49.232 15.218-73.431-11.374-21.888-39.325-16.829-56.325-5.773-31.439 20.448-47.185 57.316-54.939 92.638-3.236 14.715-5.917 32.905-4.24 49.931-5.336 2.854-10.858 5.35-16.406 7.768-5.812 2.536-7.08 10.924-4.161 15.891 3.474 5.931 10.092 6.697 15.891 4.161 3.527-1.533 7.001-3.171 10.422-4.862 2.774 6.183 6.618 11.797 11.796 16.499 15.323 13.91 36.921 13.077 55.599 7.516 13.447-4.174 26.524-10.422 38.915-17.608.502.845 1.03 1.664 1.598 2.483 10.924 15.786 29.061 20.62 47.449 19.062 21.65-1.823 42.217-10.238 60.974-20.951 7.9 12.444 20.356 19.498 35.97 21.056zm-233.794-81.687c.119-.792.238-1.572.356-2.364.304-1.955.661-3.91 1.031-5.852.806-4.24 1.77-8.454 2.84-12.642 2.008-7.886 4.517-15.653 7.424-23.248.568-1.493 1.175-2.959 1.783-4.438.039-.04 1.413-3.184 1.691-3.792 1.545-3.355 3.223-6.657 5.006-9.893 1.493-2.708 3.117-5.337 4.848-7.9.462-.687.951-1.373 1.44-2.047-.106.185 1.849-2.312 1.783-2.233 1.691-2.047 3.487-4.015 5.297-5.957 8.018-8.586 17.463-15.838 27.964-18.018.093-.026.159-.039.251-.053.172 0 .436-.013.832-.039.978-.066 1.969-.027 2.946.026h.027c.145.04.303.08.554.132.502.106.978.251 1.467.41-.714-.225.938.475 1.387.74.079.052.132.079.198.118.053.053.092.08.158.146.212.185.819.858 1.097 1.149.251.383.488.779.713 1.176.066.171.647 1.413.766 1.756.317.965.515 1.969.727 2.959.013.093.039.159.052.238 0 .185.014.489.04.991.079 1.176.053 2.338.027 3.514-.106 4.94-1.757 10.422-3.884 16.115-4.98 13.342-13.302 26.128-21.426 37.726-7.503 10.713-16.313 20.488-25.811 29.484-7.093 6.723-14.768 12.826-22.813 18.414.08-5.099.476-10.198 1.07-15.257 0-.198.093-.859.159-1.361zm5.957 49.668c-.132-.172-.171-.225 0 0zm97.314-37.449c.079-.806.172-1.612.264-2.417-.013.224.383-2.735.436-3.091 1.453-9.313 3.805-18.48 6.631-27.476 5.297-16.869 11.493-31.069 21.836-46.643.99-1.492 2.034-2.958 3.091-4.398.105-.146.185-.264.264-.357 1.017-1.281 2.087-2.536 3.144-3.778 4.663-5.482 9.88-10.713 15.758-14.874 4.465-3.17 8.56-5.27 12.774-6.578 1.083-.33 2.193-.568 3.302-.806.132-.026.238-.053.344-.079.172 0 .409-.013.753-.04.99-.079 1.981-.039 2.972-.013.185 0 .304.013.396 0 .198.066.542.159 1.097.291.277.066 1.03.356 1.453.502.435.237.871.488 1.294.753.093.092.198.185.344.317.211.185.713.792.99 1.109.291.463.568.951.832 1.427.067.106.106.185.159.264.04.119.079.238.132.383.33.938.555 1.902.779 2.867.053.264.08.462.119.62.04.529.093 1.057.119 1.586.568 10.369-4.993 21.478-10.541 31.636-17.212 31.518-41.279 58.188-69.336 79.006.026-1.321.053-2.642.119-3.963.092-2.074.277-4.161.475-6.248zm108.965 5.257c.119-2.113.317-4.214.528-6.314.013-.172.198-1.651.238-2.047.119-.793.238-1.599.357-2.391.753-4.795 1.77-9.551 2.906-14.266 2.245-9.26 5.231-18.335 8.678-27.199.41-1.056.832-2.1 1.255-3.143.119-.291.198-.502.278-.674.079-.172.158-.383.29-.674.872-2.021 1.783-4.029 2.721-6.023 1.929-4.135 4.029-8.203 6.262-12.193 1.889-3.394 3.936-6.71 6.076-9.946.991-1.493 2.034-2.959 3.091-4.399.106-.145.185-.264.264-.357 1.44-1.823 2.959-3.58 4.491-5.323 7.794-8.903 17.899-17.45 28.031-20.118.211-.053 1.743-.317 2.087-.396.674-.04 1.347-.066 2.034-.066.278 0 1.149.092 1.625.132.541.132 1.083.277 1.625.436.052.013.079.026.132.039.079.04.171.093.277.145.264.133 1.004.635 1.334.846.344.33.687.674 1.017 1.017.027.026.04.04.053.066.264.383.515.779.753 1.189.132.224.568 1.176.753 1.545.211.661.41 1.321.595 1.982.251.885.409 1.796.554 2.695-.29-1.586.066 1.677.066 1.875.265 5.812-.7 9.841-2.496 15.852-2.933 9.827-8.203 18.916-13.672 27.515-12.456 19.563-28.48 36.828-46.008 52.534-5.271 4.729-10.74 9.26-16.393 13.553.026-1.969.092-3.937.198-5.892z"/><path d="m266.699 428.796c18.163 0 32.891-14.728 32.891-32.891 0-18.176-14.728-32.905-32.891-32.905s-32.892 14.729-32.892 32.891c-.013 18.177 14.715 32.905 32.892 32.905z"/><path d="m189.185 435.269h-34.344c0-1.149 0-2.285 0-3.461v-44.529s1.109-12.509-12.219-7.873c-13.328 4.637-43.9611 13.553-43.9611 13.553s-7.1199 1.017-7.1199 10.264c0 7.793.1057 12.324.2246 32.033h-16.2608c-2.457.013-4.4384 2.008-4.4384 4.464v44.886c0 2.457 1.9814 4.452 4.4384 4.452h16.4457c.0529 23.869.0793 55.453.0793 97.789 0 0-4.0157 79.257 96.0982 40.236 0 0 5.033-2.734 5.443-7.107v-43.459s.066-6.644-6.156-3.659c0 0-32.574 14.848-32.574-6.433 0-17.079 0-17.912 0-77.367h34.344c2.444 0 4.439-1.995 4.439-4.452v-44.886c-.014-2.456-1.995-4.451-4.439-4.451z"/><path d="m435.805 435.268c-10.726 0-21.003 2.18-30.514 6.182v-1.889c0-2.457-1.981-4.451-4.438-4.451h-75.716c-2.444 0-4.439 1.994-4.439 4.451v44.886c0 2.457 1.982 4.452 4.439 4.452h14.398v174.272h-14.398c-2.444 0-4.439 1.994-4.439 4.451v44.886c0 2.457 1.982 4.452 4.439 4.452h94.223c2.456 0 4.438-1.995 4.438-4.452v-44.886c0-2.457-1.982-4.451-4.438-4.451h-14.069v-31.465c9.511 3.989 19.788 6.182 30.514 6.182 48.902 0 88.53-45.361 88.53-101.303s-39.628-101.317-88.53-101.317zm1.004 150.086c-17.529-.079-31.636-21.981-31.518-48.915.119-26.934 14.425-48.716 31.954-48.637 17.529.08 31.637 21.981 31.518 48.915s-14.425 48.703-31.954 48.637z"/><path d="m790.888 693.104c-7.344 0-11.36 6.34-11.36 11.465 0 5.337 4.729 10.858 11.36 10.858 7.543 0 11.572-4.834 11.572-10.858 0-5.125-4.227-11.465-11.572-11.465z"/><path d="m835.338 701.664c-6.433-.106-10.356-5.337-10.356-11.875 0-6.539 2.919-12.88 8.85-12.88 4.623 0 6.143 5.733 6.341 10.568h14.794v-22.734h-11.875l-1.704 4.822c-1.704-2.008-5.733-5.733-12.575-5.733-12.88 0-24.742 7.952-24.742 25.745 0 17.912 12.879 26.855 27.661 26.855 10.871 0 19.92-5.125 24.649-10.264l-8.851-10.263c-3.328 3.645-6.855 5.851-12.192 5.759z"/><path d="m886.036 663.527c-13.883 0-27.462 9.353-27.555 26.155-.198 17.806 13.685 26.657 28.07 26.657 15.297 0 27.661-9.564 27.463-26.261-.317-16.789-12.087-26.339-27.978-26.551zm.502 39.946c-4.227 0-7.437-5.429-7.437-13.685 0-7.345 3.012-13.183 6.935-13.183 4.729.105 7.344 5.931 7.344 13.473 0 7.556-2.509 13.395-6.842 13.395z"/><path d="m1000.01 687.569c0-12.271-2.513-24.147-18.813-24.147-6.935 0-11.664 3.725-14.782 7.239-1.611-2.417-4.834-7.239-14.992-7.239-6.341 0-10.964 5.429-12.576 7.345l-2.219-5.931h-19.008v13.275h4.227v23.738h-4.227v13.183h29.879v-13.183h-6.036v-17.899c0-4.122 1.307-6.037 4.53-6.037 4.029 0 4.228 3.316 4.228 11.466v25.653h26.049v-13.474h-6.037v-16.3c0-4.32 1.004-7.345 5.336-7.345 4.729 0 3.818 7.648 3.818 12.47v24.649h25.543v-13.58h-4.92z"/></g></svg>